<?xml version="1.0" standalone="no"?>
<!DOCTYPE svg PUBLIC "-//W3C//DTD SVG 20010904//EN"
 "http://www.w3.org/TR/2001/REC-SVG-20010904/DTD/svg10.dtd">
<svg version="1.0" xmlns="http://www.w3.org/2000/svg"
 width="893.000000pt" height="279.000000pt" viewBox="0 0 893.000000 279.000000"
 preserveAspectRatio="xMidYMid meet">

<g transform="translate(0.000000,279.000000) scale(0.100000,-0.100000)"
fill="#000000" stroke="none">
<path d="M1002 2163 l2 -108 3 102 4 102 127 4 127 3 -132 2 -133 2 2 -107z"/>
<path d="M1272 2170 l1 -105 -127 0 c-178 0 -159 -19 22 -23 l142 -3 0 101 c0
80 -3 100 -14 100 -8 0 -17 8 -19 18 -3 9 -5 -30 -5 -88z"/>
<path d="M1365 2003 c-11 -2 -30 -6 -43 -9 l-22 -4 2 -287 3 -287 45 -13 c234
-66 270 -83 270 -126 -1 -51 -46 -77 -132 -77 -72 0 -119 22 -146 70 -35 61
-42 40 -42 -120 0 -134 2 -151 18 -158 9 -4 80 -7 157 -7 155 1 211 13 302 65
91 52 143 148 143 263 0 157 -90 234 -349 301 -188 49 -231 75 -217 130 17 69
208 58 231 -13 6 -20 13 -21 157 -21 l150 0 -7 37 c-22 120 -129 218 -271 248
-64 14 -202 18 -249 8z"/>
<path d="M1000 1820 l0 -180 -45 35 c-59 44 -112 58 -201 53 -86 -6 -141 -34
-203 -104 -69 -78 -86 -137 -85 -289 0 -111 4 -139 23 -188 31 -79 70 -120
149 -159 54 -27 81 -34 142 -36 106 -5 178 29 232 108 17 25 17 25 17 -32 l1
-58 130 0 c72 0 130 4 130 9 0 4 -29 23 -64 40 -112 55 -186 146 -202 249 l-7
42 137 0 136 0 0 50 c0 46 -3 51 -27 61 -101 38 -169 95 -201 168 -25 57 -22
185 6 238 38 72 119 138 202 164 14 4 -38 8 -122 8 l-148 1 0 -180z m-67 -321
c43 -20 71 -85 71 -164 0 -72 -16 -117 -55 -156 -24 -24 -104 -26 -137 -3 -78
55 -84 247 -9 310 31 26 88 32 130 13z"/>
<path d="M3962 1355 c-20 -20 -31 -34 -23 -33 22 4 30 -56 30 -245 l1 -169 29
24 30 23 0 120 c1 155 -10 315 -21 315 -4 0 -25 -16 -46 -35z"/>
<path d="M2550 1305 l-34 -35 32 0 32 0 0 -170 0 -170 26 -10 c51 -20 100 -12
145 23 73 55 103 107 107 187 3 56 0 75 -17 107 -38 67 -110 103 -206 103 -45
0 -55 -4 -85 -35z m199 -63 c61 -45 80 -221 28 -254 -15 -10 -99 -10 -113 0
-7 4 -14 63 -19 146 l-7 139 43 -6 c23 -3 54 -14 68 -25z"/>
<path d="M4362 1314 c-25 -20 -30 -29 -20 -35 10 -6 14 -52 16 -188 l3 -181
30 22 29 22 0 193 c0 212 0 212 -58 167z"/>
<path d="M6694 1311 c-56 -33 -83 -66 -91 -114 -6 -42 22 -68 102 -96 90 -31
121 -85 75 -131 -29 -29 -57 -25 -96 14 l-33 33 -27 -28 c-31 -32 -27 -60 12
-77 55 -26 130 1 187 68 72 85 57 137 -52 176 -76 27 -101 48 -101 83 0 35 10
48 41 56 17 4 33 0 52 -15 26 -21 29 -21 52 -6 30 20 32 42 6 56 -33 17 -74
11 -127 -19z"/>
<path d="M2930 1295 c-19 -20 -21 -27 -10 -40 16 -19 23 -19 50 3 20 16 21 21
9 40 -17 28 -20 27 -49 -3z"/>
<path d="M3390 1295 c-22 -24 -23 -26 -7 -42 16 -16 19 -16 42 8 25 24 25 26
7 42 -18 16 -20 16 -42 -8z"/>
<path d="M5610 1290 c-19 -16 -21 -22 -10 -35 17 -20 33 -19 55 5 15 16 15 22
5 35 -16 20 -22 19 -50 -5z"/>
<path d="M3568 1258 c-16 -11 -28 -24 -28 -30 0 -6 -11 -23 -25 -40 -30 -36
-31 -48 -5 -48 19 0 20 -7 20 -89 0 -136 21 -168 79 -120 23 19 23 20 5 33
-15 12 -19 30 -22 95 -3 63 -1 81 9 82 8 0 24 13 37 30 l24 29 -31 0 c-28 0
-30 3 -33 39 l-3 40 -27 -21z"/>
<path d="M7488 1250 c-16 -12 -28 -28 -28 -36 0 -8 -4 -14 -8 -14 -4 0 -16
-13 -25 -30 l-18 -30 25 0 26 0 0 -103 c0 -71 4 -109 14 -122 13 -18 14 -18
45 4 34 25 38 36 16 45 -12 4 -15 23 -15 85 0 76 1 81 33 113 l32 33 -32 3
c-29 3 -32 7 -35 39 l-3 35 -27 -22z"/>
<path d="M2920 1173 c-25 -20 -37 -33 -28 -30 28 10 38 -24 38 -133 l0 -102
29 24 c30 23 30 23 30 135 1 107 -4 143 -18 143 -3 0 -26 -17 -51 -37z"/>
<path d="M3228 1201 c-75 -7 -100 -24 -149 -100 -52 -80 -33 -112 77 -132 80
-15 94 -24 94 -59 0 -70 -116 -112 -146 -53 l-11 23 -26 -28 c-32 -33 -34 -48
-8 -62 65 -34 194 31 239 120 35 71 13 95 -106 120 -66 13 -82 28 -82 72 0 30
17 48 46 48 26 0 54 -34 54 -65 1 -19 2 -19 20 4 11 13 20 32 20 42 0 11 7 19
16 19 15 0 53 37 54 53 0 4 -6 6 -12 5 -7 0 -43 -4 -80 -7z"/>
<path d="M3381 1177 c-36 -27 -40 -33 -23 -35 26 -4 32 -28 32 -140 l0 -92 30
27 c30 26 30 28 30 127 0 100 -6 146 -19 146 -3 -1 -26 -15 -50 -33z"/>
<path d="M3746 1181 c-26 -27 -26 -29 -7 -34 10 -2 26 -18 35 -35 l16 -31 -33
-10 c-51 -17 -97 -67 -97 -106 0 -36 12 -50 52 -60 21 -5 34 0 64 27 l37 34
-34 -4 c-25 -2 -40 2 -57 18 -31 30 -25 54 15 58 50 5 89 -22 114 -77 22 -48
24 -48 46 -34 13 9 23 22 23 31 0 39 -117 252 -139 252 -4 0 -20 -13 -35 -29z"/>
<path d="M4834 1168 c-22 -24 -51 -61 -64 -83 l-24 -39 -8 34 c-4 19 -10 52
-13 73 -3 21 -12 40 -20 43 -14 6 -60 -40 -104 -104 -28 -41 -41 -30 -41 35 0
80 -14 89 -65 45 -30 -27 -31 -30 -14 -40 16 -10 19 -28 21 -124 l3 -113 38
75 c56 114 103 156 125 113 5 -10 13 -49 17 -88 l7 -70 33 65 c33 65 76 120
93 120 21 0 33 -32 43 -113 l12 -86 26 22 c26 21 26 24 19 92 -20 197 -26 206
-84 143z"/>
<path d="M5068 1186 l-26 -27 29 -29 c33 -32 38 -60 12 -60 -31 0 -83 -39
-100 -75 -13 -27 -14 -39 -5 -59 21 -47 96 -44 122 4 10 18 8 20 -18 20 -58 0
-85 72 -30 78 44 5 86 -24 111 -76 12 -26 23 -49 24 -51 2 -3 14 6 27 18 l25
23 -20 52 c-27 68 -66 138 -98 176 l-26 32 -27 -26z"/>
<path d="M5605 1175 c-26 -23 -34 -35 -24 -35 25 0 29 -21 29 -131 l0 -100 30
23 30 22 0 112 c0 108 -5 144 -19 144 -3 -1 -24 -16 -46 -35z"/>
<path d="M6218 1200 c-71 -5 -80 -8 -112 -39 -48 -47 -81 -111 -73 -143 7 -28
25 -36 129 -58 49 -10 59 -15 64 -36 9 -37 -9 -68 -50 -88 -45 -21 -84 -13
-92 21 l-7 24 -28 -27 c-36 -35 -37 -61 -3 -70 119 -30 303 140 226 209 -10 9
-49 23 -87 31 -97 20 -126 57 -86 107 16 20 23 22 47 14 20 -7 32 -21 40 -44
l11 -34 16 24 c10 13 17 31 17 41 0 10 8 18 18 18 15 1 60 48 50 53 -1 1 -38
0 -80 -3z"/>
<path d="M6921 1184 c-27 -23 -30 -28 -16 -38 9 -7 22 -51 33 -112 28 -151 36
-156 102 -56 l45 67 3 -137 3 -136 29 11 30 11 0 203 c0 112 -2 203 -5 203 -3
0 -21 -33 -39 -72 -41 -90 -73 -126 -91 -106 -8 7 -20 51 -27 97 -8 47 -19 86
-25 88 -6 2 -25 -8 -42 -23z"/>
<path d="M7315 1195 c-32 -14 -88 -69 -98 -96 -8 -25 20 -57 56 -64 54 -11 88
-50 64 -74 -17 -17 -36 -13 -63 14 -24 24 -25 24 -44 5 -25 -25 -25 -42 0 -65
27 -25 66 -12 112 36 47 49 57 83 33 109 -10 11 -25 20 -34 20 -25 0 -81 38
-81 55 0 23 44 23 71 -1 13 -12 18 -11 36 9 36 39 0 75 -52 52z"/>
<path d="M7702 1201 c-32 -9 -82 -59 -103 -106 -31 -68 -24 -111 29 -167 36
-39 70 -36 113 8 30 32 31 35 11 29 -55 -16 -122 53 -122 126 0 47 12 61 46
57 36 -4 44 -37 18 -75 -14 -23 -10 -21 30 12 42 34 47 42 44 73 -3 38 -26 53
-66 43z"/>
<path d="M7993 1177 c-16 -18 -42 -52 -58 -75 -17 -23 -33 -42 -37 -42 -5 0
-8 17 -8 39 0 52 -10 101 -22 101 -5 0 -24 -12 -42 -26 -32 -26 -33 -27 -15
-45 16 -16 19 -35 19 -126 l0 -108 34 68 c49 97 83 139 109 135 22 -3 23 -5
42 -122 l7 -40 34 64 c76 143 115 146 130 10 4 -36 10 -73 13 -83 6 -16 9 -15
31 8 l24 25 -13 108 c-7 59 -17 115 -23 125 -14 27 -41 7 -97 -73 -26 -38 -51
-66 -55 -63 -3 3 -6 20 -6 37 0 38 -18 103 -29 111 -5 3 -22 -10 -38 -28z"/>
<path d="M5341 1150 c-31 -31 -55 -66 -62 -91 -11 -36 -10 -42 7 -59 11 -11
45 -25 78 -31 99 -18 108 -24 104 -65 -4 -47 -43 -78 -94 -77 -42 1 -46 4 -48
37 l-1 25 -32 -31 c-54 -52 -41 -78 35 -78 92 0 224 119 207 187 -6 27 -45 47
-115 58 -66 10 -90 29 -90 70 0 33 20 55 49 55 20 0 51 -40 51 -66 l0 -27 20
26 c11 14 20 35 20 46 0 14 6 21 19 21 10 0 26 11 35 25 l16 25 -74 0 -75 0
-50 -50z"/>
<path d="M5730 1164 c-19 -20 -30 -34 -24 -31 23 13 35 -24 41 -126 l6 -105
37 77 c79 161 121 162 136 1 l7 -69 29 20 c28 20 28 22 22 87 -4 37 -12 92
-18 122 -15 76 -36 74 -98 -8 -26 -34 -51 -62 -55 -62 -5 0 -10 28 -13 62 -6
77 -21 84 -70 32z"/>
<path d="M8337 1151 c-26 -28 -47 -56 -47 -64 0 -21 32 -46 68 -53 62 -13 87
-81 27 -77 -26 2 -39 12 -48 38 -6 15 -47 -25 -47 -45 0 -27 36 -53 64 -46 31
8 105 82 112 113 8 30 -17 59 -58 67 -53 10 -88 56 -55 69 8 3 28 -2 45 -10
26 -13 35 -13 47 -3 9 7 15 23 13 34 -2 16 -11 22 -39 24 -31 3 -41 -3 -82
-47z"/>
<path d="M450 690 l0 -140 740 0 740 0 0 140 0 140 -740 0 -740 0 0 -140z
m430 19 c0 -53 -4 -89 -10 -89 -5 0 -11 17 -12 38 l-1 37 -4 -36 c-3 -27 -10
-38 -25 -42 -26 -7 -37 -1 -48 27 l-9 21 0 -22 c-1 -37 -17 -26 -28 20 l-11
42 -1 -42 c-1 -50 -18 -57 -24 -10 -3 29 -4 28 -5 -9 -2 -53 -21 -79 -51 -69
-26 8 -22 31 5 28 18 -1 18 -1 1 12 -11 8 -25 11 -33 8 -10 -4 -14 4 -14 28 0
19 -5 41 -10 49 -7 11 -10 2 -10 -31 0 -36 -4 -48 -17 -51 -27 -7 -43 2 -53
27 -13 33 -1 64 26 71 20 5 24 12 24 45 0 28 4 39 15 39 10 0 15 -10 15 -30 0
-22 4 -28 15 -24 11 5 15 -1 15 -21 0 -22 3 -25 14 -16 7 6 24 12 38 13 16 1
24 7 21 15 -3 8 2 13 12 13 11 0 15 -5 11 -15 -3 -8 -1 -15 5 -15 7 0 9 10 5
26 -6 21 -4 25 11 22 9 -2 20 -13 23 -26 6 -26 8 -27 50 -18 27 5 30 9 30 45
0 32 3 39 15 35 12 -5 15 -25 15 -95z m760 36 c0 -23 10 -31 35 -25 31 7 120
-2 128 -12 7 -10 10 -10 14 0 7 17 43 15 43 -3 0 -8 -5 -15 -12 -15 -9 0 -9
-3 0 -12 7 -7 12 -22 12 -34 0 -20 -5 -23 -40 -21 -38 1 -40 3 -42 37 l-1 35
-4 -37 c-2 -21 -8 -38 -14 -38 -5 0 -10 17 -11 38 l-1 37 -4 -36 c-4 -33 -7
-36 -38 -37 -38 -2 -61 25 -52 59 3 10 1 19 -4 19 -5 0 -9 -18 -9 -40 0 -22
-4 -40 -10 -40 -5 0 -10 18 -10 40 0 32 -3 38 -16 33 -11 -4 -12 -9 -5 -16 15
-15 14 -54 -1 -59 -19 -7 -38 2 -38 18 0 17 17 19 23 2 4 -8 6 -7 6 3 1 9 -6
22 -14 29 -22 18 -18 39 8 49 12 5 25 7 28 5 3 -2 4 8 1 21 -3 18 0 25 12 25
10 0 16 -9 16 -25z m-656 -10 c3 -10 19 -15 46 -15 23 0 40 -5 40 -11 0 -8 4
-8 13 -2 18 15 67 25 67 14 0 -12 64 5 68 19 2 6 11 10 19 10 8 0 13 -6 10
-13 -3 -8 1 -14 9 -15 47 -4 105 -3 114 3 15 10 13 -117 -3 -139 -10 -13 -20
-16 -36 -11 -25 8 -23 31 2 29 9 -1 14 2 11 7 -3 5 -13 9 -24 9 -12 0 -21 11
-28 38 l-10 37 -1 -37 c-1 -21 -5 -38 -11 -38 -5 0 -10 6 -11 13 0 10 -2 10
-6 0 -8 -21 -23 -15 -24 10 -1 13 -5 6 -10 -18 -12 -49 -21 -59 -49 -50 -24 8
-21 32 4 27 9 -2 16 2 16 8 0 5 -5 9 -12 7 -6 -1 -17 9 -25 23 -12 25 -13 25
-13 3 0 -13 -2 -23 -4 -23 -2 0 -11 -3 -19 -6 -8 -3 -22 2 -31 11 -9 9 -16 12
-16 6 0 -6 -4 -11 -10 -11 -5 0 -11 17 -12 38 l-1 37 -4 -37 c-2 -21 -8 -38
-14 -38 -5 0 -10 17 -11 38 l-1 37 -4 -37 c-5 -44 -22 -51 -24 -10 l-2 27 -4
-27 c-6 -41 -23 -34 -25 10 -1 20 -2 46 -3 57 -3 35 17 49 29 20z m534 -37 l5
-22 8 22 c5 12 13 22 18 22 14 0 -32 -143 -48 -148 -11 -4 -12 2 -7 23 5 20 3
26 -6 22 -16 -5 -48 10 -48 23 0 6 7 10 15 10 12 0 13 4 4 19 -17 26 -4 51 27
51 18 0 28 -6 32 -22z"/>
<path d="M546 685 c-3 -9 -2 -24 3 -33 9 -16 10 -16 16 0 4 9 2 24 -3 33 -8
16 -9 16 -16 0z"/>
<path d="M807 694 c-11 -11 -8 -54 3 -54 6 0 13 6 16 14 7 17 -9 50 -19 40z"/>
<path d="M653 674 c-3 -8 -1 -20 6 -27 8 -8 11 -4 11 16 0 30 -7 35 -17 11z"/>
<path d="M1810 671 c0 -7 7 -19 15 -27 13 -13 15 -13 15 -1 0 8 -7 20 -15 27
-11 9 -15 10 -15 1z"/>
<path d="M1680 649 c0 -5 5 -7 10 -4 6 3 10 8 10 11 0 2 -4 4 -10 4 -5 0 -10
-5 -10 -11z"/>
<path d="M1100 670 c0 -16 5 -30 10 -30 6 0 10 14 10 30 0 17 -4 30 -10 30 -5
0 -10 -13 -10 -30z"/>
<path d="M1177 683 c-11 -10 -8 -43 3 -43 6 0 10 11 10 25 0 26 -2 29 -13 18z"/>
<path d="M1337 683 c-10 -9 -9 -43 2 -43 5 0 11 6 14 13 6 17 -7 40 -16 30z"/>
<path d="M1488 684 c-3 -5 1 -20 8 -34 12 -22 14 -22 14 -5 0 24 -16 51 -22
39z"/>
<path d="M2510 550 l0 -30 368 1 c202 0 360 3 352 7 -8 4 -15 16 -15 27 0 20
-8 20 -352 23 l-353 2 0 -30z"/>
</g>
</svg>
