<?xml version="1.0" standalone="no"?>
<!DOCTYPE svg PUBLIC "-//W3C//DTD SVG 20010904//EN"
 "http://www.w3.org/TR/2001/REC-SVG-20010904/DTD/svg10.dtd">
<svg version="1.0" xmlns="http://www.w3.org/2000/svg"
 width="360.000000pt" height="360.000000pt" viewBox="0 0 360.000000 360.000000"
 preserveAspectRatio="xMidYMid meet">

<g transform="translate(0.000000,360.000000) scale(0.100000,-0.100000)"
fill="#000000" stroke="none">
<path d="M1578 3120 c-46 -14 -46 -16 -27 -107 27 -131 27 -135 -25 -156 -25
-10 -74 -46 -110 -79 l-66 -60 0 40 c0 23 -4 52 -10 66 -9 24 -14 26 -75 26
-115 0 -265 -39 -265 -69 0 -5 16 -31 36 -56 20 -26 32 -51 27 -55 -4 -4 -56
-27 -115 -49 -58 -23 -111 -47 -116 -54 -14 -17 -35 -145 -30 -186 6 -60 26
-61 124 -4 49 28 92 49 95 47 4 -2 -2 -30 -13 -62 -31 -86 -56 -175 -83 -294
-36 -160 -22 -223 88 -381 30 -42 74 -99 99 -126 l45 -49 6 -93 c9 -155 80
-329 134 -329 15 0 15 2 0 18 -44 48 -101 209 -114 322 l-6 55 54 -46 c99 -85
207 -144 297 -164 60 -13 33 12 -48 45 -65 26 -169 87 -202 119 -4 3 20 7 52
8 67 2 155 36 171 64 12 24 13 24 -57 -8 -47 -21 -74 -27 -136 -27 l-78 -1
-46 50 c-130 141 -235 301 -250 382 -4 21 -11 41 -16 44 -4 3 20 34 54 69 101
102 237 153 403 153 169 -1 272 -43 387 -158 108 -107 141 -117 415 -123 l212
-4 39 -67 c150 -251 229 -594 203 -875 -6 -65 -13 -121 -15 -124 -11 -10 -150
43 -205 78 -106 69 -149 141 -207 347 -40 140 -53 174 -54 133 0 -25 32 -168
46 -204 4 -10 -33 13 -85 54 -50 40 -95 69 -99 65 -8 -8 82 -92 150 -138 26
-18 48 -36 48 -42 0 -5 7 -22 14 -37 9 -17 11 -28 4 -28 -11 0 -258 62 -315
79 -31 9 -55 -1 -34 -13 19 -12 198 -64 280 -82 83 -17 85 -18 155 -89 71 -71
148 -118 215 -131 l32 -7 -28 -17 c-131 -79 -235 -120 -306 -120 -45 0 -209
46 -271 75 -74 35 -186 185 -186 249 0 13 -3 17 -10 10 -22 -22 35 -156 92
-214 l35 -36 -58 -1 c-59 -2 -148 -33 -170 -59 -21 -25 -5 -24 51 4 79 39 171
37 305 -7 55 -18 101 -34 103 -35 1 -2 -38 -4 -89 -4 -94 -1 -177 -21 -200
-48 -20 -24 -4 -25 47 -2 42 18 70 22 194 24 209 3 279 23 457 125 47 27 91
48 97 45 7 -3 7 -5 -1 -5 -7 -1 -13 -8 -13 -17 0 -8 -9 -37 -21 -64 -27 -62
-79 -103 -193 -153 l-91 -40 -155 0 c-179 -1 -271 13 -435 68 -141 47 -209 85
-372 206 -126 94 -214 183 -302 307 -13 18 -25 31 -27 29 -6 -6 36 -79 51 -89
6 -5 6 -8 -2 -8 -7 0 -20 14 -28 31 -9 17 -19 29 -21 26 -8 -8 -53 -497 -48
-512 9 -21 91 -45 157 -45 65 0 121 21 142 54 11 17 34 125 35 168 0 4 41 -24
90 -61 50 -37 103 -74 118 -82 15 -8 35 -22 44 -32 10 -11 22 -16 29 -11 7 4
9 3 6 -3 -6 -9 91 -68 208 -126 47 -23 164 -61 265 -86 178 -43 277 -38 390
20 96 49 97 50 152 139 68 111 77 133 104 239 31 122 40 279 25 436 -24 247
-87 436 -206 615 -24 36 -46 81 -50 100 -28 137 -198 302 -357 346 -32 9 -58
20 -58 24 0 4 20 30 44 57 39 43 55 53 118 71 40 12 108 24 152 27 43 3 82 7
86 10 4 2 15 31 24 64 15 54 15 63 1 99 -32 78 -129 102 -256 62 -35 -10 -64
-18 -65 -17 0 1 -8 24 -17 51 -31 92 -104 181 -165 200 -21 7 -22 12 -22 116
0 89 -3 109 -16 114 -22 9 -117 7 -131 -2 -7 -4 -27 -39 -45 -77 l-33 -70 -6
65 c-3 36 -9 71 -13 78 -8 13 -96 15 -138 2z m-478 -752 c-12 -123 -20 -148
-46 -148 -27 0 -16 72 42 263 14 45 15 -1 4 -115z m698 15 c-58 -110 -67 -123
-83 -123 -24 0 -18 32 16 86 32 51 87 114 101 114 4 0 -11 -35 -34 -77z m-758
-193 c0 -5 -4 -10 -10 -10 -5 0 -10 5 -10 10 0 6 5 10 10 10 6 0 10 -4 10 -10z"/>
</g>
</svg>
